<svg xmlns="http://www.w3.org/2000/svg" width="7.29167in" height="7.29167in" viewBox="0 0 525 525">
  <path id="Amarillo" fill="#FFFF38" stroke="#FFFF38" stroke-width="1" d="M 277.00,56.00
           C 270.61,40.53 289.30,21.94 304.98,25.28
             311.39,26.64 313.99,34.01 308.77,38.49
             304.57,42.10 298.41,40.23 291.09,45.79
             285.38,50.12 285.14,53.30 277.00,56.00 Z
           M 200.00,68.00
           C 200.00,68.00 244.00,62.00 244.00,62.00
             244.00,62.00 266.00,62.00 266.00,62.00
             264.46,68.59 261.41,74.75 258.86,81.00
             258.15,82.75 257.03,86.95 255.44,87.87
             252.82,89.39 244.74,84.12 242.00,82.75
             232.55,78.03 225.99,76.27 216.00,73.42
             211.21,72.05 203.95,70.68 200.00,68.00 Z
           M 305.00,65.00
           C 305.00,65.00 340.00,72.72 340.00,72.72
             340.00,72.72 351.00,76.94 351.00,76.94
             375.22,86.13 397.36,98.74 416.00,117.01
             429.78,130.52 439.82,145.02 448.78,162.00
             457.08,177.72 462.89,193.54 466.40,211.00
             468.61,221.99 470.87,238.90 471.00,250.00
             472.11,345.23 408.19,434.02 316.00,460.14
             300.75,464.46 292.60,465.66 277.00,467.17
             277.00,467.17 268.00,468.00 268.00,468.00
             195.57,468.84 126.98,435.92 83.13,378.00
             70.91,361.86 60.47,344.20 53.86,325.00
             50.13,314.15 46.26,297.43 45.04,286.00
             45.04,286.00 45.04,277.00 45.04,277.00
             45.04,277.00 44.02,268.00 44.02,268.00
             44.02,268.00 45.00,254.00 45.00,254.00
             45.18,238.47 47.10,230.74 51.29,216.00
             64.51,169.52 96.86,131.44 138.00,106.80
             149.06,100.18 165.60,92.98 178.00,89.43
             181.71,88.36 190.47,85.90 194.00,86.25
             199.36,86.78 210.41,92.88 215.00,96.00
             210.82,98.43 202.44,99.13 197.00,101.09
             187.76,104.41 179.51,110.04 172.00,116.25
             169.31,118.47 161.39,124.32 161.34,127.85
             161.26,132.37 169.51,130.48 172.00,130.13
             172.00,130.13 206.00,126.00 206.00,126.00
             214.09,125.91 226.19,124.40 230.43,133.02
             234.20,140.68 229.60,160.05 240.02,163.36
             244.66,164.83 249.95,159.87 253.00,156.96
             259.78,150.51 271.41,135.64 281.00,135.60
             291.39,135.55 305.43,148.13 313.00,154.58
             318.47,159.24 320.56,162.47 328.00,163.00
             328.00,154.59 328.46,147.27 326.24,139.00
             324.64,133.01 319.85,125.20 323.17,119.05
             325.99,113.84 331.85,113.90 337.00,114.01
             354.26,114.41 373.98,123.96 389.00,124.00
             384.57,116.44 374.46,109.44 367.00,104.81
             344.89,91.08 323.56,85.61 298.00,93.00
             295.88,84.89 301.80,72.56 305.00,65.00 Z
           M 131.00,135.00
           C 120.65,137.53 111.32,148.65 104.00,156.00
             79.71,180.40 67.46,209.10 63.84,243.00
             63.84,243.00 62.00,261.00 62.00,261.00
             61.84,275.41 62.98,289.97 66.47,304.00
             75.92,341.96 102.99,382.81 135.00,405.23
             158.75,421.87 198.78,436.95 228.00,437.00
             228.00,437.00 242.00,437.00 242.00,437.00
             252.03,436.88 271.32,432.82 281.00,429.67
             301.69,422.94 318.47,414.09 335.00,399.71
             357.15,380.44 373.10,353.54 379.77,325.00
             381.64,316.96 382.38,309.17 383.17,301.00
             383.17,301.00 383.96,294.00 383.96,294.00
             383.96,294.00 382.83,277.00 382.83,277.00
             380.89,256.68 375.00,235.92 361.68,220.00
             359.09,216.90 353.41,211.17 350.00,209.15
             348.08,208.02 345.54,206.87 343.60,208.64
             339.24,212.63 346.41,219.92 348.76,223.00
             357.71,234.72 365.82,252.94 364.96,268.00
             364.35,278.51 353.90,281.17 347.63,272.96
             342.94,266.80 341.27,256.40 338.98,249.00
             335.35,237.30 331.39,228.54 323.54,219.00
             299.80,190.16 267.19,184.75 233.00,176.99
             213.62,172.59 203.79,168.83 183.00,167.51
             179.78,167.31 173.34,168.21 170.00,168.75
             150.31,171.98 134.29,181.51 121.86,197.17
             121.86,197.17 108.30,218.00 108.30,218.00
             106.30,221.08 103.83,224.71 100.00,225.53
             97.97,225.96 95.89,225.49 94.00,224.26
             87.51,219.31 90.89,208.16 94.00,202.00
             100.00,188.73 106.83,181.69 116.54,171.17
             120.96,166.38 127.32,160.94 129.89,155.00
             133.04,147.73 131.98,142.44 131.00,135.00 Z
           M 353.00,288.65
           C 369.98,285.72 365.00,314.87 354.98,318.22
             348.79,320.29 344.64,314.31 343.71,309.00
             342.34,301.18 345.46,291.88 353.00,288.65 Z" />
  <path id="Gris" fill="#333333" stroke="#333333" stroke-width="1" d="M 293.00,12.53
           C 300.04,11.37 312.07,12.34 317.83,16.80
             324.30,21.82 324.59,28.58 327.51,31.30
             329.54,33.21 336.12,35.05 339.00,36.00
             339.00,36.00 354.00,40.69 354.00,40.69
             370.35,46.63 386.56,55.22 401.00,64.89
             436.78,88.84 467.70,125.55 485.14,165.00
             489.86,175.69 493.36,186.83 496.72,198.00
             501.80,214.85 504.86,229.40 506.09,247.00
             506.09,247.00 507.00,259.00 507.00,259.00
             507.00,259.00 507.00,275.00 507.00,275.00
             507.00,275.00 506.09,285.00 506.09,285.00
             504.71,303.85 500.97,321.08 495.00,339.00
             474.03,401.91 427.03,458.36 367.00,487.22
             344.09,498.23 303.39,510.96 278.00,511.00
             278.00,511.00 251.00,511.00 251.00,511.00
             230.63,510.76 199.20,502.66 180.00,495.42
             129.52,476.38 83.44,437.37 54.54,392.00
             47.69,381.23 42.18,369.71 37.15,358.00
             37.15,358.00 31.10,344.00 31.10,344.00
             31.10,344.00 28.66,335.00 28.66,335.00
             22.69,315.45 20.34,305.44 18.91,285.00
             18.91,285.00 18.00,272.00 18.00,272.00
             18.00,272.00 18.96,263.00 18.96,263.00
             18.96,263.00 18.96,249.00 18.96,249.00
             18.96,249.00 22.54,229.00 22.54,229.00
             29.54,191.67 41.01,165.10 61.44,133.00
             91.68,85.48 139.52,52.33 193.00,36.28
             206.37,32.27 232.44,26.16 246.00,26.00
             246.00,26.00 263.00,25.00 263.00,25.00
             266.43,24.96 275.01,25.57 277.68,23.98
             281.95,21.43 281.95,15.97 293.00,12.53 Z
           M 277.00,54.00
           C 284.28,52.82 285.46,48.65 291.00,44.56
             298.56,38.97 304.74,41.09 308.49,37.35
             312.03,33.82 310.65,26.93 303.00,26.11
             291.70,24.90 280.82,34.51 277.79,45.00
             276.89,48.10 277.01,50.83 277.00,54.00 Z
           M 265.00,63.00
           C 246.32,63.00 239.93,62.77 221.00,65.58
             216.21,66.29 208.28,67.17 204.00,69.00
             204.00,69.00 239.00,80.01 239.00,80.01
             239.00,80.01 255.00,88.00 255.00,88.00
             255.00,88.00 265.00,63.00 265.00,63.00 Z
           M 212.00,96.00
           C 208.19,92.97 197.81,87.56 193.00,87.38
             190.29,87.28 181.00,89.83 178.00,90.72
             166.16,94.25 154.97,99.11 144.00,104.74
             132.43,110.69 126.06,115.55 116.00,123.60
             85.50,148.00 63.56,178.43 52.58,216.00
             49.05,228.07 46.15,240.35 46.00,253.00
             45.61,286.86 46.76,307.32 60.86,339.00
             71.10,362.00 90.08,387.91 108.58,404.88
             108.58,404.88 125.00,419.48 125.00,419.48
             156.91,444.47 198.76,461.14 239.00,465.17
             239.00,465.17 258.00,467.00 258.00,467.00
             284.36,467.30 313.71,461.96 338.00,451.57
             356.99,443.45 377.51,431.50 393.00,417.83
             393.00,417.83 408.00,403.00 408.00,403.00
             425.08,385.84 438.92,365.85 449.30,344.00
             460.84,319.70 467.25,293.78 469.09,267.00
             469.09,267.00 470.00,257.00 470.00,257.00
             470.00,257.00 470.00,253.00 470.00,253.00
             470.00,253.00 469.09,242.00 469.09,242.00
             468.25,229.96 467.13,217.79 464.35,206.00
             454.55,164.52 429.28,124.61 394.00,100.35
             372.89,85.83 354.41,78.22 330.00,71.29
             322.71,69.22 320.55,68.65 313.00,67.79
             310.82,67.27 307.61,66.57 305.70,67.79
             304.00,69.25 303.00,73.01 302.33,75.00
             300.33,80.97 298.53,85.64 298.00,92.00
             322.93,83.84 347.58,90.75 369.00,104.69
             373.27,107.48 381.46,113.62 384.98,117.09
             386.33,118.42 389.38,121.26 388.09,123.40
             386.18,126.55 375.96,123.47 373.00,122.77
             360.52,119.81 347.05,114.47 334.00,115.04
             329.97,115.22 325.81,116.02 324.01,120.11
             321.76,125.23 325.34,132.09 326.91,137.00
             328.10,140.74 328.95,148.01 329.00,152.00
             329.02,154.44 329.31,159.72 327.98,161.68
             324.44,166.89 316.83,159.55 314.00,157.05
             305.61,149.64 291.09,135.48 279.00,137.21
             270.27,138.47 260.49,151.84 254.00,157.96
             250.80,160.97 245.71,165.07 241.00,164.67
             229.02,163.66 232.72,141.81 229.30,134.02
             225.86,126.17 216.12,126.99 209.00,127.00
             209.00,127.00 170.00,131.71 170.00,131.71
             166.85,132.10 158.10,132.72 160.17,126.98
             161.32,123.78 169.13,117.12 172.00,114.80
             189.30,100.82 192.42,102.01 212.00,96.00 Z
           M 131.00,133.00
           C 137.73,151.44 129.07,159.82 116.95,172.17
             107.83,181.46 92.63,199.49 92.04,213.00
             91.50,225.34 99.49,226.85 104.47,221.72
             104.47,221.72 116.90,202.00 116.90,202.00
             124.03,191.66 134.87,181.39 146.00,175.30
             175.70,159.74 199.87,167.97 230.00,175.30
             247.06,179.16 277.07,185.39 292.00,192.81
             299.72,196.64 307.30,202.26 314.00,207.66
             327.01,218.17 336.01,234.08 340.57,250.00
             342.81,257.81 345.14,273.99 354.01,276.76
             356.04,277.40 358.05,277.25 359.87,276.11
             365.55,272.54 363.77,264.45 363.00,259.00
             361.60,249.08 357.88,238.44 352.45,230.00
             352.45,230.00 341.61,215.00 341.61,215.00
             339.35,209.56 343.22,202.28 353.00,209.68
             371.97,224.04 381.64,252.05 383.96,275.00
             383.96,275.00 383.96,284.00 383.96,284.00
             383.96,284.00 384.96,295.00 384.96,295.00
             384.16,315.66 379.49,337.40 370.19,356.00
             348.68,399.03 308.97,427.08 262.00,435.25
             254.91,436.48 247.20,437.91 240.00,438.00
             240.00,438.00 228.00,438.00 228.00,438.00
             195.78,437.95 153.03,421.23 128.00,401.33
             100.80,379.72 80.22,348.72 68.86,316.00
             64.91,304.63 61.02,284.99 61.00,273.00
             60.96,250.43 63.18,225.23 71.46,204.00
             76.58,190.87 83.63,179.19 92.13,168.00
             101.23,156.03 117.20,139.16 131.00,133.00 Z
           M 352.02,290.60
           C 345.27,294.33 344.81,299.94 345.02,307.00
             345.17,312.27 348.44,319.25 354.91,317.17
             362.34,314.78 370.43,286.83 352.02,290.60 Z" />
</svg>